<?xml version="1.0" standalone="no"?><!DOCTYPE svg PUBLIC "-//W3C//DTD SVG 1.1//EN" "http://www.w3.org/Graphics/SVG/1.1/DTD/svg11.dtd" ><svg xmlns="http://www.w3.org/2000/svg"><metadata></metadata><defs><font id="RyoichiTsunekawa: Bebas Neue Regular: 2014" horiz-adv-x="1705"><font-face font-family="Bebas Neue Regular" font-weight="400" font-stretch="normal" units-per-em="2048" panose-1="0 0 5 0 0 0 0 0 0 0" ascent="1536" descent="-512" x-height="0" bbox="0 -305 1679 1817" underline-thickness="102" underline-position="-174" unicode-range="U+0000-25fc" /><missing-glyph horiz-adv-x="748" d="M68 0 l0 1365 l544 0 l0 -1365 l-544 0 ZM136 68 l408 0 l0 1229 l-408 0 l0 -1229 Z" /><glyph glyph-name=".null" unicode="" d="" /><glyph glyph-name="nonmarkingreturn" unicode="" d="" /><glyph glyph-name="space" unicode=" " d="" /><glyph glyph-name="exclam" unicode="!" d="M82 760 l0 674 l160 0 l0 -674 l-21 -443 l-119 0 l-20 443 ZM84 0 l0 199 l154 0 l0 -199 l-154 0 Z" /><glyph glyph-name="quotedbl" unicode="&quot;" d="M82 1434 l154 0 l-23 -387 l-111 0 l-20 387 ZM307 1434 l154 0 l-23 -387 l-110 0 l-21 387 Z" /><glyph glyph-name="numbersign" unicode="#" d="M47 432 l12 115 l117 0 l45 420 l-121 0 l13 114 l118 0 l37 353 l131 0 l-37 -353 l189 0 l37 353 l131 0 l-37 -353 l115 0 l-13 -114 l-114 0 l-43 -420 l114 0 l-12 -115 l-115 0 l-45 -432 l-131 0 l45 432 l-186 0 l-47 -432 l-131 0 l47 432 l-119 0 ZM307 547 l189 0 l43 420 l-187 0 l-45 -420 Z" /><glyph glyph-name="dollar" unicode="$" d="M74 358 l0 88 l149 0 l0 -98 q0 -203 168 -203 q168 0 168 203 q0 64 -26.5 118.5 q-26.5 54.5 -68.5 95 q-42 40.5 -93.5 79 q-51.5 38.5 -102.5 80 q-51 41.5 -93 89 q-42 47.5 -68.5 115.5 q-26.5 68 -26.5 150 q0 151 62.5 241.5 q62.5 90.5 189.5 110.5 l0 115 l131 0 l0 -115 q127 -18 190.5 -110.5 q63.5 -92.5 63.5 -241.5 l0 -39 l-150 0 l0 49 q0 205 -166 205 q-163 0 -163 -205 q0 -65 26.5 -120 q26.5 -55 69 -95 q42.5 -40 93.5 -78.5 q51 -38.5 102.5 -80 q51.5 -41.5 94 -88.5 q42.5 -47 69 -115 q26.5 -68 26.5 -150 q0 -149 -64.5 -242.5 q-64.5 -93.5 -191.5 -111.5 l0 -108 l-131 0 l0 108 q-130 18 -194 110.5 q-64 92.5 -64 243.5 Z" /><glyph glyph-name="percent" unicode="%" d="M74 758 l0 452 q0 107 52 169.5 q52 62.5 153 62.5 q101 0 152.5 -62.5 q51.5 -62.5 51.5 -169.5 l0 -452 q0 -108 -51.5 -170 q-51.5 -62 -152.5 -62 q-101 0 -153 62 q-52 62 -52 170 ZM176 750 q0 -129 103 -129 q102 0 102 129 l0 467 q0 131 -102 131 q-103 0 -103 -131 l0 -467 ZM295 0 l565 1434 l96 0 l-565 -1434 l-96 0 ZM778 225 l0 451 q0 106 52 167.5 q52 61.5 153 61.5 q102 0 153.5 -61 q51.5 -61 51.5 -168 l0 -451 q0 -108 -51 -169.5 q-51 -61.5 -154 -61.5 q-101 0 -153 61.5 q-52 61.5 -52 169.5 ZM881 217 q0 -131 102 -131 q102 0 102 131 l0 465 q0 129 -102 129 q-102 0 -102 -129 l0 -465 Z" /><glyph glyph-name="ampersand" unicode="&amp;" d="M84 315 l0 140 q0 110 42 188 q42 78 128 111 q-85 30 -127.5 106 q-42.5 76 -42.5 187 l0 32 q0 172 85 263.5 q85 91.5 253 91.5 l231 0 l0 -146 l-227 0 q-184 0 -184 -203 l0 -71 q0 -91 43.5 -141.5 q43.5 -50.5 122.5 -53.5 l161 0 l0 160 l158 0 l0 -160 l70 0 l0 -143 l-70 0 l0 -494 q0 -64 5.5 -104 q5.5 -40 25.5 -78 l-162 0 q-25 54 -27 125 q-62 -139 -225 -139 q-130 0 -195 86.5 q-65 86.5 -65 242.5 ZM242 328 q0 -197 166 -197 q71 0 114.5 41.5 q43.5 41.5 46.5 122.5 l0 381 l-149 0 q-178 -6 -178 -217 l0 -131 Z" /><glyph glyph-name="quotesingle" unicode="&#39;" d="M78 1434 l153 0 l-22 -387 l-111 0 l-20 387 Z" /><glyph glyph-name="parenleft" unicode="(" d="M92 315 l0 803 q0 165 67 240.5 q67 75.5 228 75.5 l57 0 l0 -131 l-47 0 q-81 0 -114 -44 q-33 -44 -33 -141 l0 -803 q0 -97 32.5 -140.5 q32.5 -43.5 114.5 -43.5 l47 0 l0 -131 l-57 0 q-161 0 -228 75 q-67 75 -67 240 Z" /><glyph glyph-name="parenright" unicode=")" d="M49 0 l0 131 l47 0 q82 0 115 43.5 q33 43.5 33 140.5 l0 803 q0 96 -33.5 140.5 q-33.5 44.5 -114.5 44.5 l-47 0 l0 131 l57 0 q161 0 228 -75.5 q67 -75.5 67 -240.5 l0 -803 q0 -165 -67 -240 q-67 -75 -228 -75 l-57 0 Z" /><glyph glyph-name="asterisk" unicode="*" d="M37 1110 l39 125 l299 -131 l-37 323 l131 0 l-35 -323 l299 129 l39 -125 l-319 -64 l217 -239 l-105 -78 l-162 285 l-159 -285 l-105 78 l215 239 l-317 66 Z" /><glyph glyph-name="plus" unicode="+" d="M61 659 l0 115 l283 0 l0 285 l115 0 l0 -285 l282 0 l0 -115 l-282 0 l0 -288 l-115 0 l0 288 l-283 0 Z" /><glyph glyph-name="comma" unicode="," d="M92 0 l0 199 l154 0 l0 -185 l-80 -194 l-66 0 l52 180 l-60 0 Z" /><glyph glyph-name="hyphen" unicode="-" d="M76 645 l0 143 l391 0 l0 -143 l-391 0 Z" /><glyph glyph-name="period" unicode="." d="M82 0 l0 199 l154 0 l0 -199 l-154 0 Z" /><glyph glyph-name="slash" unicode="/" d="M33 0 l565 1434 l139 0 l-565 -1434 l-139 0 Z" /><glyph glyph-name="zero" unicode="0" d="M70 348 l0 739 q0 169 83 265 q83 96 244 96 q162 0 246 -96 q84 -96 84 -265 l0 -739 q0 -169 -84 -265.5 q-84 -96.5 -246 -96.5 q-160 0 -243.5 96.5 q-83.5 96.5 -83.5 265.5 ZM227 338 q0 -99 42.5 -153 q42.5 -54 127.5 -54 q86 0 128 54 q42 54 42 153 l0 758 q0 209 -170 209 q-85 0 -127.5 -54.5 q-42.5 -54.5 -42.5 -154.5 l0 -758 Z" /><glyph glyph-name="one" unicode="1" d="M176 1112 l0 131 q56 2 98 17.5 q42 15.5 70 43.5 q28 28 45 58 q17 30 33 72 l110 0 l0 -1434 l-157 0 l0 1174 q-90 -56 -199 -62 Z" /><glyph glyph-name="two" unicode="2" d="M82 0 l0 123 q0 94 26.5 177 q26.5 83 69.5 145.5 q43 62.5 94.5 120.5 q51.5 58 103.5 114 q52 56 95 113.5 q43 57.5 69.5 131 q26.5 73.5 26.5 154.5 q0 113 -40.5 169.5 q-40.5 56.5 -127.5 56.5 q-85 0 -126.5 -56 q-41.5 -56 -41.5 -155 l0 -127 l-149 0 l0 116 q0 170 80 267.5 q80 97.5 241 97.5 q162 0 243 -96.5 q81 -96.5 81 -266.5 q0 -88 -27 -169 q-27 -81 -69.5 -144.5 q-42.5 -63.5 -94.5 -124 q-52 -60.5 -103.5 -117 q-51.5 -56.5 -94.5 -111.5 q-43 -55 -70.5 -119.5 q-27.5 -64.5 -27.5 -131.5 l0 -23 l471 0 l0 -145 l-629 0 Z" /><glyph glyph-name="three" unicode="3" d="M74 348 l0 98 l149 0 l0 -108 q0 -99 42 -153 q42 -54 126 -54 q168 0 168 221 l0 111 q0 105 -44.5 157.5 q-44.5 52.5 -135.5 55.5 l-86 0 l0 143 l94 0 q81 3 126.5 54 q45.5 51 45.5 143 l0 65 q0 224 -168 224 q-84 0 -126 -55 q-42 -55 -42 -154 l0 -74 l-149 0 l0 65 q0 169 80.5 265 q80.5 96 240.5 96 q161 0 242.5 -96 q81.5 -96 81.5 -265 l0 -36 q0 -111 -44 -187 q-44 -76 -130 -108 q174 -65 174 -297 l0 -111 q0 -170 -81.5 -266 q-81.5 -96 -242.5 -96 q-160 0 -240.5 96 q-80.5 96 -80.5 266 Z" /><glyph glyph-name="four" unicode="4" d="M45 289 l0 145 l444 1000 l175 0 l0 -1000 l114 0 l0 -145 l-114 0 l0 -289 l-156 0 l0 289 l-463 0 ZM193 434 l315 0 l0 701 l-315 -701 Z" /><glyph glyph-name="five" unicode="5" d="M76 348 l0 96 l149 0 l0 -106 q0 -99 42 -153 q42 -54 126 -54 q84 0 126 54 q42 54 42 153 l0 278 q0 99 -42 153 q-42 54 -126 54 q-141 0 -162 -153 l0 -33 l-149 0 l39 797 l565 0 l0 -144 l-422 0 l-22 -440 q69 119 213 119 q134 0 200 -90 q66 -90 66 -250 l0 -281 q0 -169 -82 -265.5 q-82 -96.5 -242 -96.5 q-160 0 -240.5 96 q-80.5 96 -80.5 266 Z" /><glyph glyph-name="six" unicode="6" d="M72 348 l0 731 q0 176 81.5 272.5 q81.5 96.5 247.5 96.5 q162 0 243 -94.5 q81 -94.5 81 -263.5 l0 -27 l-150 0 l0 37 q0 205 -169 205 q-90 0 -132.5 -57.5 q-42.5 -57.5 -42.5 -174.5 l0 -321 q61 153 232 153 q134 0 200 -89.5 q66 -89.5 66 -250.5 l0 -217 q0 -169 -83.5 -265.5 q-83.5 -96.5 -244.5 -96.5 q-162 0 -245.5 96.5 q-83.5 96.5 -83.5 265.5 ZM231 338 q0 -99 42 -153 q42 -54 128 -54 q85 0 127.5 54 q42.5 54 42.5 153 l0 215 q0 99 -42.5 153 q-42.5 54 -127.5 54 q-86 0 -128 -54 q-42 -54 -42 -153 l0 -215 Z" /><glyph glyph-name="seven" unicode="7" d="M72 1290 l0 144 l649 0 l0 -140 l-369 -1294 l-159 0 l366 1290 l-487 0 Z" /><glyph glyph-name="eight" unicode="8" d="M63 344 l0 107 q0 236 166 303 q-166 64 -166 295 l0 45 q0 168 87 261 q87 93 251 93 q164 0 251 -93 q87 -93 87 -261 l0 -45 q0 -233 -164 -295 q164 -65 164 -303 l0 -107 q0 -169 -86.5 -263.5 q-86.5 -94.5 -251.5 -94.5 q-165 0 -251.5 94.5 q-86.5 94.5 -86.5 263.5 ZM221 348 q0 -217 180 -217 q178 0 181 217 l0 121 q0 207 -181 207 q-180 0 -180 -207 l0 -121 ZM221 1020 q0 -201 180 -201 q181 0 181 201 l0 70 q0 108 -47 161.5 q-47 53.5 -134 53.5 q-87 0 -133.5 -53.5 q-46.5 -53.5 -46.5 -161.5 l0 -70 Z" /><glyph glyph-name="nine" unicode="9" d="M68 868 l0 219 q0 169 82.5 265 q82.5 96 244.5 96 q162 0 246 -96 q84 -96 84 -265 l0 -731 q0 -176 -82.5 -273 q-82.5 -97 -249.5 -97 q-160 0 -241.5 95.5 q-81.5 95.5 -81.5 264.5 l0 27 l149 0 l0 -37 q0 -99 42.5 -152 q42.5 -53 127.5 -53 q91 0 133.5 56.5 q42.5 56.5 42.5 172.5 l0 322 q-60 -152 -231 -152 q-134 0 -200 89 q-66 89 -66 249 ZM225 881 q0 -99 42.5 -153 q42.5 -54 127.5 -54 q86 0 128 54 q42 54 42 153 l0 215 q0 207 -170 207 q-85 0 -127.5 -53.5 q-42.5 -53.5 -42.5 -153.5 l0 -215 Z" /><glyph glyph-name="colon" unicode=":" d="M82 0 l0 199 l154 0 l0 -199 l-154 0 ZM82 780 l0 199 l154 0 l0 -199 l-154 0 Z" /><glyph glyph-name="semicolon" unicode=";" d="M92 0 l0 199 l154 0 l0 -185 l-80 -194 l-66 0 l52 180 l-60 0 ZM92 780 l0 199 l154 0 l0 -199 l-154 0 Z" /><glyph glyph-name="less" unicode="&lt;" d="M68 659 l0 115 l634 260 l0 -116 l-485 -201 l485 -201 l0 -117 l-634 260 Z" /><glyph glyph-name="equal" unicode="=" d="M76 528 l0 115 l565 0 l0 -115 l-565 0 ZM76 819 l0 115 l565 0 l0 -115 l-565 0 Z" /><glyph glyph-name="greater" unicode="&gt;" d="M82 399 l0 117 l485 201 l-485 201 l0 116 l635 -260 l0 -115 l-635 -260 Z" /><glyph glyph-name="question" unicode="?" d="M55 967 l0 116 q0 169 79.5 267 q79.5 98 238.5 98 q161 0 240 -96.5 q79 -96.5 79 -266.5 q0 -96 -29.5 -176.5 q-29.5 -80.5 -71 -138 q-41.5 -57.5 -83 -111 q-41.5 -53.5 -71 -120.5 q-29.5 -67 -29.5 -142 q0 -36 10 -78 l-144 0 q-10 42 -10 82 q0 86 27.5 158.5 q27.5 72.5 67 126.5 q39.5 54 79 109 q39.5 55 67 131.5 q27.5 76.5 27.5 167.5 q0 211 -163 211 q-164 0 -164 -211 l0 -127 l-150 0 ZM268 0 l0 199 l152 0 l0 -199 l-152 0 Z" /><glyph glyph-name="at" unicode="@" d="M59 590 q0 148 28 282 q28 134 87.5 250.5 q59.5 116.5 145.5 201 q86 84.5 209.5 133 q123.5 48.5 271.5 48.5 q121 0 216 -29 q95 -29 159 -81 q64 -52 105.5 -126.5 q41.5 -74.5 60 -162 q18.5 -87.5 18.5 -191.5 q0 -147 -32 -270 q-32 -123 -84.5 -202.5 q-52.5 -79.5 -119.5 -123 q-67 -43.5 -139 -43.5 q-74 0 -116 36.5 q-42 36.5 -46 103.5 q-65 -143 -211 -140 q-111 1 -156.5 85.5 q-45.5 84.5 -31.5 228.5 l22 205 q14 143 78.5 222.5 q64.5 79.5 175.5 76.5 q137 0 177 -136 l14 127 l139 0 l-61 -587 q-5 -39 9 -63.5 q14 -24.5 50 -24.5 q56 0 99 49 q43 49 66 127 q23 78 34 161 q11 83 10 164 q0 222 -108.5 345.5 q-108.5 123.5 -331.5 123.5 q-121 0 -219.5 -39 q-98.5 -39 -169 -109.5 q-70.5 -70.5 -118 -170.5 q-47.5 -100 -70.5 -220 q-23 -120 -23 -259 q0 -272 128.5 -420 q128.5 -148 389.5 -148 q237 0 403 129 l-12 -141 q-161 -111 -399 -111 q-166 0 -291 49.5 q-125 49.5 -202.5 142 q-77.5 92.5 -116 219.5 q-38.5 127 -38.5 288 ZM565 596 q-9 -83 19.5 -133 q28.5 -50 97.5 -51 q69 -1 109 47.5 q40 48.5 49 134.5 l20 197 q8 74 -22.5 118.5 q-30.5 44.5 -96.5 44.5 q-69 1 -108.5 -44 q-39.5 -45 -48.5 -130 l-19 -184 Z" /><glyph glyph-name="A" unicode="a" d="M41 0 l274 1434 l232 0 l274 -1434 l-159 0 l-56 289 l-362 0 l-56 -289 l-147 0 ZM264 426 l320 0 l-162 827 l-158 -827 Z" /><glyph glyph-name="B" unicode="b" d="M82 0 l0 1434 l321 0 q164 0 238 -78.5 q74 -78.5 74 -239.5 l0 -67 q0 -118 -38.5 -187.5 q-38.5 -69.5 -129.5 -97.5 q192 -54 192 -307 l0 -121 q0 -164 -81 -250 q-81 -86 -246 -86 l-330 0 ZM242 145 l170 0 q88 0 129 47.5 q41 47.5 41 147.5 l0 127 q0 117 -47.5 165 q-47.5 48 -153.5 48 l-139 0 l0 -535 ZM242 825 l123 0 q100 0 146 41.5 q46 41.5 46 149.5 l0 84 q0 97 -36.5 142.5 q-36.5 45.5 -121.5 45.5 l-157 0 l0 -463 Z" /><glyph glyph-name="C" unicode="c" d="M70 346 l0 741 q0 168 80.5 264.5 q80.5 96.5 240.5 96.5 q161 0 242.5 -96.5 q81.5 -96.5 81.5 -264.5 l0 -129 l-152 0 l0 138 q0 207 -168 207 q-84 0 -126 -54 q-42 -54 -42 -153 l0 -758 q0 -99 42 -153 q42 -54 126 -54 q168 0 168 207 l0 186 l152 0 l0 -178 q0 -168 -81.5 -264 q-81.5 -96 -242.5 -96 q-160 0 -240.5 96 q-80.5 96 -80.5 264 Z" /><glyph glyph-name="D" unicode="d" d="M82 0 l0 1434 l336 0 q163 0 244 -93.5 q81 -93.5 81 -263.5 l0 -723 q0 -169 -81 -261.5 q-81 -92.5 -244 -92.5 l-336 0 ZM242 145 l174 0 q170 0 170 203 l0 737 q0 203 -172 203 l-172 0 l0 -1143 Z" /><glyph glyph-name="E" unicode="e" d="M82 0 l0 1434 l590 0 l0 -146 l-430 0 l0 -489 l350 0 l0 -144 l-350 0 l0 -510 l430 0 l0 -145 l-590 0 Z" /><glyph glyph-name="F" unicode="f" d="M82 0 l0 1434 l569 0 l0 -146 l-409 0 l0 -522 l329 0 l0 -145 l-329 0 l0 -621 l-160 0 Z" /><glyph glyph-name="G" unicode="g" d="M70 346 l0 741 q0 168 80.5 264.5 q80.5 96.5 240.5 96.5 q161 0 242.5 -96.5 q81.5 -96.5 81.5 -264.5 l0 -122 l-152 0 l0 131 q0 207 -168 207 q-84 0 -126 -54 q-42 -54 -42 -153 l0 -758 q0 -99 42 -153 q42 -54 126 -54 q168 0 168 207 l0 287 l-147 0 l0 143 l299 0 l0 -422 q0 -168 -81.5 -264 q-81.5 -96 -242.5 -96 q-160 0 -240.5 96 q-80.5 96 -80.5 264 Z" /><glyph glyph-name="H" unicode="h" d="M82 0 l0 1434 l160 0 l0 -646 l352 0 l0 646 l160 0 l0 -1434 l-160 0 l0 645 l-352 0 l0 -645 l-160 0 Z" /><glyph glyph-name="I" unicode="i" d="M82 0 l0 1434 l160 0 l0 -1434 l-160 0 Z" /><glyph glyph-name="J" unicode="j" d="M41 0 l0 145 q27 -2 80 -2 q83 5 125.5 51 q42.5 46 42.5 150 l0 1090 l157 0 l0 -1080 q0 -349 -305 -356 q-82 0 -100 2 Z" /><glyph glyph-name="K" unicode="k" d="M82 0 l0 1434 l160 0 l0 -693 l381 693 l161 0 l-362 -654 l375 -780 l-164 0 l-307 623 l-84 -142 l0 -481 l-160 0 Z" /><glyph glyph-name="L" unicode="l" d="M82 0 l0 1434 l160 0 l0 -1289 l409 0 l0 -145 l-569 0 Z" /><glyph glyph-name="M" unicode="m" d="M80 0 l0 1434 l223 0 l236 -1145 l227 1145 l223 0 l0 -1434 l-151 0 l0 1153 l-228 -1151 l-153 0 l-238 1141 l0 -1143 l-139 0 Z" /><glyph glyph-name="N" unicode="n" d="M80 0 l0 1434 l203 0 l331 -1037 l0 1037 l142 0 l0 -1434 l-166 0 l-367 1159 l0 -1159 l-143 0 Z" /><glyph glyph-name="O" unicode="o" d="M70 346 l0 741 q0 169 83 265 q83 96 244 96 q162 0 246 -96 q84 -96 84 -265 l0 -741 q0 -167 -84 -263.5 q-84 -96.5 -246 -96.5 q-160 0 -243.5 96.5 q-83.5 96.5 -83.5 263.5 ZM227 338 q0 -100 42.5 -153.5 q42.5 -53.5 127.5 -53.5 q170 0 170 207 l0 758 q0 99 -42 153 q-42 54 -128 54 q-85 0 -127.5 -54 q-42.5 -54 -42.5 -153 l0 -758 Z" /><glyph glyph-name="P" unicode="p" d="M82 0 l0 1434 l313 0 q164 0 243 -91.5 q79 -91.5 79 -259.5 l0 -172 q0 -346 -334 -346 l-141 0 l0 -565 l-160 0 ZM242 709 l141 0 q91 0 133.5 45.5 q42.5 45.5 42.5 146.5 l0 191 q0 100 -39 148 q-39 48 -125 48 l-153 0 l0 -579 Z" /><glyph glyph-name="Q" unicode="q" d="M70 346 l0 741 q0 169 83 265 q83 96 244 96 q162 0 246 -96 q84 -96 84 -265 l0 -741 q0 -138 -55 -223 q12 -25 32.5 -35 q20.5 -10 55.5 -10 l20 0 l0 -141 l-26 0 q-132 0 -183 92 q-72 -43 -174 -43 q-160 0 -243.5 96.5 q-83.5 96.5 -83.5 263.5 ZM227 338 q0 -100 42.5 -153.5 q42.5 -53.5 127.5 -53.5 q170 0 170 207 l0 758 q0 99 -42 153 q-42 54 -128 54 q-85 0 -127.5 -54 q-42.5 -54 -42.5 -153 l0 -758 Z" /><glyph glyph-name="R" unicode="r" d="M82 0 l0 1434 l319 0 q166 0 243 -82.5 q77 -82.5 77 -245.5 l0 -117 q0 -239 -178 -295 q95 -28 137.5 -103.5 q42.5 -75.5 42.5 -195.5 l0 -223 q0 -119 29 -172 l-162 0 q-27 62 -27 174 l0 225 q0 117 -52 165 q-52 48 -157 48 l-112 0 l0 -612 l-160 0 ZM242 758 l118 0 q102 0 152.5 42.5 q50.5 42.5 50.5 153.5 l0 138 q0 99 -39.5 147.5 q-39.5 48.5 -126.5 48.5 l-155 0 l0 -530 Z" /><glyph glyph-name="S" unicode="s" d="M59 344 l0 82 l150 0 l0 -90 q0 -205 168 -205 q168 0 168 205 q0 64 -26.5 120 q-26.5 56 -68.5 99 q-42 43 -93.5 84.5 q-51.5 41.5 -102.5 86 q-51 44.5 -93 94 q-42 49.5 -68.5 119 q-26.5 69.5 -26.5 151.5 q0 170 79.5 264 q79.5 94 237.5 94 q159 0 239 -95 q80 -95 80 -263 l0 -39 l-151 0 l0 47 q0 205 -164 205 q-164 0 -164 -203 q0 -65 26.5 -121.5 q26.5 -56.5 69 -99.5 q42.5 -43 94 -84.5 q51.5 -41.5 103 -86 q51.5 -44.5 94 -94 q42.5 -49.5 69 -119 q26.5 -69.5 26.5 -151.5 q0 -167 -82 -262.5 q-82 -95.5 -242 -95.5 q-160 0 -241 95 q-81 95 -81 263 Z" /><glyph glyph-name="T" unicode="t" d="M27 1288 l0 146 l688 0 l0 -146 l-264 0 l0 -1288 l-160 0 l0 1288 l-264 0 Z" /><glyph glyph-name="U" unicode="u" d="M76 346 l0 1088 l157 0 l0 -1096 q0 -207 168 -207 q166 0 166 207 l0 1096 l150 0 l0 -1088 q0 -169 -80.5 -265.5 q-80.5 -96.5 -241.5 -96.5 q-159 0 -239 96.5 q-80 96.5 -80 265.5 Z" /><glyph glyph-name="V" unicode="v" d="M41 1434 l162 0 l233 -1248 l232 1248 l147 0 l-268 -1434 l-236 0 l-270 1434 Z" /><glyph glyph-name="W" unicode="w" d="M47 1434 l156 0 l168 -1221 l159 1219 l158 0 l158 -1221 l162 1223 l139 0 l-195 -1434 l-211 0 l-137 973 l-141 -973 l-219 0 l-197 1434 Z" /><glyph glyph-name="X" unicode="x" d="M47 0 l289 739 l-270 695 l165 0 l222 -574 l223 574 l149 0 l-268 -695 l287 -739 l-168 0 l-238 618 l-239 -618 l-152 0 Z" /><glyph glyph-name="Y" unicode="y" d="M33 1434 l166 0 l223 -705 l225 705 l152 0 l-305 -920 l0 -514 l-158 0 l0 514 l-303 920 Z" /><glyph glyph-name="Z" unicode="z" d="M59 0 l0 143 l492 1145 l-469 0 l0 146 l633 0 l0 -144 l-494 -1145 l490 0 l0 -145 l-652 0 Z" /><glyph glyph-name="bracketleft" unicode="[" d="M92 0 l0 1434 l346 0 l0 -131 l-188 0 l0 -1172 l188 0 l0 -131 l-346 0 Z" /><glyph glyph-name="backslash" unicode="\" d="M33 1434 l139 0 l565 -1434 l-139 0 l-565 1434 Z" /><glyph glyph-name="bracketright" unicode="]" d="M57 0 l0 131 l187 0 l0 1172 l-187 0 l0 131 l346 0 l0 -1434 l-346 0 Z" /><glyph glyph-name="asciicircum" unicode="^" d="M55 799 l299 635 l117 0 l299 -635 l-129 0 l-229 489 l-228 -489 l-129 0 Z" /><glyph glyph-name="underscore" unicode="_" d="M27 -20 l977 0 l0 -117 l-977 0 l0 117 Z" /><glyph glyph-name="grave" unicode="`" d="M88 1737 l166 0 l141 -211 l-116 0 l-191 211 Z" /><glyph glyph-name="a" unicode="a" d="M41 0 l274 1434 l232 0 l274 -1434 l-159 0 l-56 289 l-362 0 l-56 -289 l-147 0 ZM264 426 l320 0 l-162 827 l-158 -827 Z" /><glyph glyph-name="b" unicode="b" d="M82 0 l0 1434 l321 0 q164 0 238 -78.5 q74 -78.5 74 -239.5 l0 -67 q0 -118 -38.5 -187.5 q-38.5 -69.5 -129.5 -97.5 q192 -54 192 -307 l0 -121 q0 -164 -81 -250 q-81 -86 -246 -86 l-330 0 ZM242 145 l170 0 q88 0 129 47.5 q41 47.5 41 147.5 l0 127 q0 117 -47.5 165 q-47.5 48 -153.5 48 l-139 0 l0 -535 ZM242 825 l123 0 q100 0 146 41.5 q46 41.5 46 149.5 l0 84 q0 97 -36.5 142.5 q-36.5 45.5 -121.5 45.5 l-157 0 l0 -463 Z" /><glyph glyph-name="c" unicode="c" d="M70 346 l0 741 q0 168 80.5 264.5 q80.5 96.5 240.5 96.5 q161 0 242.5 -96.5 q81.5 -96.5 81.5 -264.5 l0 -129 l-152 0 l0 138 q0 207 -168 207 q-84 0 -126 -54 q-42 -54 -42 -153 l0 -758 q0 -99 42 -153 q42 -54 126 -54 q168 0 168 207 l0 186 l152 0 l0 -178 q0 -168 -81.5 -264 q-81.5 -96 -242.5 -96 q-160 0 -240.5 96 q-80.5 96 -80.5 264 Z" /><glyph glyph-name="d" unicode="d" d="M82 0 l0 1434 l336 0 q163 0 244 -93.5 q81 -93.5 81 -263.5 l0 -723 q0 -169 -81 -261.5 q-81 -92.5 -244 -92.5 l-336 0 ZM242 145 l174 0 q170 0 170 203 l0 737 q0 203 -172 203 l-172 0 l0 -1143 Z" /><glyph glyph-name="e" unicode="e" d="M82 0 l0 1434 l590 0 l0 -146 l-430 0 l0 -489 l350 0 l0 -144 l-350 0 l0 -510 l430 0 l0 -145 l-590 0 Z" /><glyph glyph-name="f" unicode="f" d="M82 0 l0 1434 l569 0 l0 -146 l-409 0 l0 -522 l329 0 l0 -145 l-329 0 l0 -621 l-160 0 Z" /><glyph glyph-name="g" unicode="g" d="M70 346 l0 741 q0 168 80.5 264.5 q80.5 96.5 240.5 96.5 q161 0 242.5 -96.5 q81.5 -96.5 81.5 -264.5 l0 -122 l-152 0 l0 131 q0 207 -168 207 q-84 0 -126 -54 q-42 -54 -42 -153 l0 -758 q0 -99 42 -153 q42 -54 126 -54 q168 0 168 207 l0 287 l-147 0 l0 143 l299 0 l0 -422 q0 -168 -81.5 -264 q-81.5 -96 -242.5 -96 q-160 0 -240.5 96 q-80.5 96 -80.5 264 Z" /><glyph glyph-name="h" unicode="h" d="M82 0 l0 1434 l160 0 l0 -646 l352 0 l0 646 l160 0 l0 -1434 l-160 0 l0 645 l-352 0 l0 -645 l-160 0 Z" /><glyph glyph-name="i" unicode="i" d="M82 0 l0 1434 l160 0 l0 -1434 l-160 0 Z" /><glyph glyph-name="j" unicode="j" d="M41 0 l0 145 q27 -2 80 -2 q83 5 125.5 51 q42.5 46 42.5 150 l0 1090 l157 0 l0 -1080 q0 -349 -305 -356 q-82 0 -100 2 Z" /><glyph glyph-name="k" unicode="k" d="M82 0 l0 1434 l160 0 l0 -693 l381 693 l161 0 l-362 -654 l375 -780 l-164 0 l-307 623 l-84 -142 l0 -481 l-160 0 Z" /><glyph glyph-name="l" unicode="l" d="M82 0 l0 1434 l160 0 l0 -1289 l409 0 l0 -145 l-569 0 Z" /><glyph glyph-name="m" unicode="m" d="M80 0 l0 1434 l223 0 l236 -1145 l227 1145 l223 0 l0 -1434 l-151 0 l0 1153 l-228 -1151 l-153 0 l-238 1141 l0 -1143 l-139 0 Z" /><glyph glyph-name="n" unicode="n" d="M80 0 l0 1434 l203 0 l331 -1037 l0 1037 l142 0 l0 -1434 l-166 0 l-367 1159 l0 -1159 l-143 0 Z" /><glyph glyph-name="o" unicode="o" d="M70 346 l0 741 q0 169 83 265 q83 96 244 96 q162 0 246 -96 q84 -96 84 -265 l0 -741 q0 -167 -84 -263.5 q-84 -96.5 -246 -96.5 q-160 0 -243.5 96.5 q-83.5 96.5 -83.5 263.5 ZM227 338 q0 -100 42.5 -153.5 q42.5 -53.5 127.5 -53.5 q170 0 170 207 l0 758 q0 99 -42 153 q-42 54 -128 54 q-85 0 -127.5 -54 q-42.5 -54 -42.5 -153 l0 -758 Z" /><glyph glyph-name="p" unicode="p" d="M82 0 l0 1434 l313 0 q164 0 243 -91.5 q79 -91.5 79 -259.5 l0 -172 q0 -346 -334 -346 l-141 0 l0 -565 l-160 0 ZM242 709 l141 0 q91 0 133.5 45.5 q42.5 45.5 42.5 146.5 l0 191 q0 100 -39 148 q-39 48 -125 48 l-153 0 l0 -579 Z" /><glyph glyph-name="q" unicode="q" d="M70 346 l0 741 q0 169 83 265 q83 96 244 96 q162 0 246 -96 q84 -96 84 -265 l0 -741 q0 -138 -55 -223 q12 -25 32.5 -35 q20.5 -10 55.5 -10 l20 0 l0 -141 l-26 0 q-132 0 -183 92 q-72 -43 -174 -43 q-160 0 -243.5 96.5 q-83.5 96.5 -83.5 263.5 ZM227 338 q0 -100 42.5 -153.5 q42.5 -53.5 127.5 -53.5 q170 0 170 207 l0 758 q0 99 -42 153 q-42 54 -128 54 q-85 0 -127.5 -54 q-42.5 -54 -42.5 -153 l0 -758 Z" /><glyph glyph-name="r" unicode="r" d="M82 0 l0 1434 l319 0 q166 0 243 -82.5 q77 -82.5 77 -245.5 l0 -117 q0 -239 -178 -295 q95 -28 137.5 -103.5 q42.5 -75.5 42.5 -195.5 l0 -223 q0 -119 29 -172 l-162 0 q-27 62 -27 174 l0 225 q0 117 -52 165 q-52 48 -157 48 l-112 0 l0 -612 l-160 0 ZM242 758 l118 0 q102 0 152.5 42.5 q50.5 42.5 50.5 153.5 l0 138 q0 99 -39.5 147.5 q-39.5 48.5 -126.5 48.5 l-155 0 l0 -530 Z" /><glyph glyph-name="s" unicode="s" d="M59 344 l0 82 l150 0 l0 -90 q0 -205 168 -205 q168 0 168 205 q0 64 -26.5 120 q-26.5 56 -68.5 99 q-42 43 -93.5 84.5 q-51.5 41.5 -102.5 86 q-51 44.5 -93 94 q-42 49.5 -68.5 119 q-26.5 69.5 -26.5 151.5 q0 170 79.5 264 q79.5 94 237.5 94 q159 0 239 -95 q80 -95 80 -263 l0 -39 l-151 0 l0 47 q0 205 -164 205 q-164 0 -164 -203 q0 -65 26.5 -121.5 q26.5 -56.5 69 -99.5 q42.5 -43 94 -84.5 q51.5 -41.5 103 -86 q51.5 -44.5 94 -94 q42.5 -49.5 69 -119 q26.5 -69.5 26.5 -151.5 q0 -167 -82 -262.5 q-82 -95.5 -242 -95.5 q-160 0 -241 95 q-81 95 -81 263 Z" /><glyph glyph-name="t" unicode="t" d="M25 1288 l0 146 l686 0 l0 -146 l-265 0 l0 -1288 l-157 0 l0 1288 l-264 0 Z" /><glyph glyph-name="u" unicode="u" d="M76 346 l0 1088 l157 0 l0 -1096 q0 -207 168 -207 q166 0 166 207 l0 1096 l150 0 l0 -1088 q0 -169 -80.5 -265.5 q-80.5 -96.5 -241.5 -96.5 q-159 0 -239 96.5 q-80 96.5 -80 265.5 Z" /><glyph glyph-name="v" unicode="v" d="M41 1434 l162 0 l233 -1248 l232 1248 l147 0 l-268 -1434 l-236 0 l-270 1434 Z" /><glyph glyph-name="w" unicode="w" d="M47 1434 l156 0 l168 -1221 l159 1219 l158 0 l158 -1221 l162 1223 l139 0 l-195 -1434 l-211 0 l-137 973 l-141 -973 l-219 0 l-197 1434 Z" /><glyph glyph-name="x" unicode="x" d="M47 0 l289 739 l-270 695 l165 0 l222 -574 l223 574 l149 0 l-268 -695 l287 -739 l-168 0 l-238 618 l-239 -618 l-152 0 Z" /><glyph glyph-name="y" unicode="y" d="M33 1434 l166 0 l223 -705 l225 705 l152 0 l-305 -920 l0 -514 l-158 0 l0 514 l-303 920 Z" /><glyph glyph-name="z" unicode="z" d="M59 0 l0 143 l492 1145 l-469 0 l0 146 l633 0 l0 -144 l-494 -1145 l490 0 l0 -145 l-652 0 Z" /><glyph glyph-name="braceleft" unicode="{" d="M41 649 l0 135 q71 6 94.5 38.5 q23.5 32.5 28.5 113.5 l14 278 q16 220 205 220 l94 0 l0 -131 l-39 0 q-62 0 -86.5 -36.5 q-24.5 -36.5 -29.5 -121.5 l-13 -232 q-2 -36 -7.5 -63.5 q-5.5 -27.5 -19 -55 q-13.5 -27.5 -40.5 -47.5 q-27 -20 -66 -30 q74 -20 101.5 -70 q27.5 -50 31.5 -127 l13 -231 q5 -85 29.5 -121.5 q24.5 -36.5 86.5 -36.5 l39 0 l0 -131 l-94 0 q-189 0 -205 219 l-14 279 q-5 80 -28.5 112.5 q-23.5 32.5 -94.5 38.5 Z" /><glyph glyph-name="bar" unicode="|" d="M324 -90 l0 1614 l131 0 l0 -1614 l-131 0 Z" /><glyph glyph-name="braceright" unicode="}" d="M49 0 l0 131 l39 0 q62 0 87 36.5 q25 36.5 30 121.5 l12 231 q2 37 7.5 64 q5.5 27 18.5 55 q13 28 40 48 q27 20 67 30 q-32 8 -56 23.5 q-24 15.5 -38 33 q-14 17.5 -22.5 42 q-8.5 24.5 -12 46.5 q-3.5 22 -4.5 51 l-12 232 q-5 85 -30 121.5 q-25 36.5 -87 36.5 l-39 0 l0 131 l94 0 q94 0 145.5 -57 q51.5 -57 57.5 -163 l16 -278 q5 -81 27.5 -113.5 q22.5 -32.5 93.5 -38.5 l0 -135 q-71 -6 -93.5 -38 q-22.5 -32 -27.5 -113 l-16 -279 q-6 -106 -57.5 -162.5 q-51.5 -56.5 -145.5 -56.5 l-94 0 Z" /><glyph glyph-name="asciitilde" unicode="~" d="M37 678 q59 88 109.5 125 q50.5 37 109.5 37 q39 1 84 -19 q45 -20 78.5 -43.5 q33.5 -23.5 73.5 -43.5 q40 -20 71 -19 q36 0 63.5 25 q27.5 25 69.5 87 l78 -77 q-56 -86 -104.5 -121 q-48.5 -35 -106.5 -37 q-39 -1 -83 19 q-44 20 -77.5 44 q-33.5 24 -74 44 q-40.5 20 -72.5 20 q-39 0 -68.5 -25.5 q-29.5 -25.5 -72.5 -89.5 l-78 74 Z" /><glyph glyph-name="nonbreakingspace" unicode=" ê" d="" /><glyph glyph-name="cent" unicode="¢" d="M76 436 l0 561 q0 150 63.5 243.5 q63.5 93.5 190.5 111.5 l0 102 l131 0 l0 -100 q130 -17 195 -108.5 q65 -91.5 65 -241.5 l0 -82 l-150 0 l0 90 q0 202 -168 202 q-167 0 -167 -206 l0 -582 q0 -205 167 -205 q168 0 168 205 l0 137 l150 0 l0 -127 q0 -152 -65 -244.5 q-65 -92.5 -195 -109.5 l0 -102 l-131 0 l0 102 q-127 18 -190.5 111.5 q-63.5 93.5 -63.5 242.5 Z" /><glyph glyph-name="sterling" unicode="£" d="M68 0 l0 139 q90 36 147.5 121.5 q57.5 85.5 50.5 200.5 l-170 0 l0 125 l150 0 q-15 48 -45 110 q-30 62 -52.5 107.5 q-22.5 45.5 -40.5 120.5 q-18 75 -18 161 q0 170 79.5 266.5 q79.5 96.5 240.5 96.5 q159 0 238 -98 q79 -98 79 -267 l0 -114 l-152 0 l0 123 q0 211 -161 211 q-164 0 -164 -209 q0 -86 17.5 -162 q17.5 -76 39.5 -122 q22 -46 50 -109.5 q28 -63.5 42 -114.5 l275 0 l0 -125 l-264 0 q2 -85 -31.5 -160 q-33.5 -75 -110.5 -156 l453 0 l0 -145 l-653 0 Z" /><glyph glyph-name="yen" unicode="¥" d="M37 1434 l166 0 l227 -701 l229 701 l152 0 l-297 -875 l195 0 l0 -84 l-205 0 l0 -121 l205 0 l0 -82 l-205 0 l0 -272 l-160 0 l0 272 l-205 0 l0 82 l205 0 l0 121 l-205 0 l0 84 l193 0 l-295 875 Z" /><glyph glyph-name="dieresis" unicode="¨¬" d="M72 1518 l0 184 l139 0 l0 -184 l-139 0 ZM238 1518 l0 184 l139 0 l0 -184 l-139 0 Z" /><glyph glyph-name="copyright" unicode="©" d="M146 345 q-91 166 -91 372 q0 206 91 372 q91 166 252.5 259.5 q161.5 93.5 361.5 93.5 q150 0 281 -55 q131 -55 223.5 -150.5 q92.5 -95.5 146 -230.5 q53.5 -135 53.5 -289 q0 -154 -53.5 -289 q-53.5 -135 -146 -230.5 q-92.5 -95.5 -223.5 -150.5 q-131 -55 -281 -55 q-200 0 -361.5 93.5 q-161.5 93.5 -252.5 259.5 ZM237.5 1035 q-77.5 -142 -77.5 -318 q0 -176 77.5 -318.5 q77.5 -142.5 215 -223.5 q137.5 -81 307.5 -81 q170 0 307.5 81 q137.5 81 215 223.5 q77.5 142.5 77.5 318.5 q0 176 -77.5 318 q-77.5 142 -215 223 q-137.5 81 -307.5 81 q-170 0 -307.5 -81 q-137.5 -81 -215 -223 ZM528 518 l0 395 q0 119 56 186.5 q56 67.5 168 67.5 q111 0 167 -67.5 q56 -67.5 56 -186.5 l0 -61 l-107 0 l0 70 q0 141 -114 141 q-57 0 -86 -37 q-29 -37 -29 -104 l0 -410 q0 -67 29 -104 q29 -37 86 -37 q114 0 114 141 l0 100 l107 0 l0 -94 q0 -118 -56 -185 q-56 -67 -167 -67 q-112 0 -168 67 q-56 67 -56 185 Z" /><glyph glyph-name="guillemotleft" unicode="«ç" d="M49 719 l129 514 l146 0 l-129 -514 l129 -535 l-146 0 l-129 535 ZM332 719 l131 514 l143 0 l-129 -514 l129 -535 l-143 0 l-131 535 Z" /><glyph glyph-name="uni00AD" unicode="­" d="M76 645 l0 143 l391 0 l0 -143 l-391 0 Z" /><glyph glyph-name="registered" unicode="®" d="M146 345 q-91 166 -91 372 q0 206 91 372 q91 166 252.5 259.5 q161.5 93.5 361.5 93.5 q150 0 281 -55 q131 -55 223.5 -150.5 q92.5 -95.5 146 -230.5 q53.5 -135 53.5 -289 q0 -154 -53.5 -289 q-53.5 -135 -146 -230.5 q-92.5 -95.5 -223.5 -150.5 q-131 -55 -281 -55 q-200 0 -361.5 93.5 q-161.5 93.5 -252.5 259.5 ZM237.5 1035 q-77.5 -142 -77.5 -318 q0 -176 77.5 -318.5 q77.5 -142.5 215 -223.5 q137.5 -81 307.5 -81 q170 0 307.5 81 q137.5 81 215 223.5 q77.5 142.5 77.5 318.5 q0 176 -77.5 318 q-77.5 142 -215 223 q-137.5 81 -307.5 81 q-170 0 -307.5 -81 q-137.5 -81 -215 -223 ZM547 279 l0 876 l223 0 q115 0 169 -57.5 q54 -57.5 54 -171.5 l0 -21 q0 -163 -119 -207 q119 -40 119 -204 l0 -95 q0 -80 23 -120 l-117 0 q-16 39 -16 120 l0 95 q0 82 -37.5 114.5 q-37.5 32.5 -112.5 32.5 l-76 0 l0 -362 l-110 0 ZM657 745 l93 0 q66 0 98.5 31 q32.5 31 32.5 105 l0 32 q0 70 -27 105 q-27 35 -90 35 l-107 0 l0 -308 Z" /><glyph glyph-name="acute" unicode="´" d="M63 1526 l144 211 l158 0 l-191 -211 l-111 0 Z" /><glyph glyph-name="cedilla" unicode="¸ü" d="M63 -168 l109 0 l0 -14 q0 -31 23.5 -45.5 q23.5 -14.5 56.5 -16.5 q35 0 58.5 17 q23.5 17 23.5 51 q0 65 -96 65 l-17 0 l0 129 l72 0 l0 -98 q74 0 112.5 -22.5 q38.5 -22.5 38.5 -77.5 q0 -38 -15 -63.5 q-15 -25.5 -43 -38.5 q-28 -13 -59.5 -18 q-31.5 -5 -74.5 -5 q-84 0 -136.5 28.5 q-52.5 28.5 -52.5 92.5 l0 16 Z" /><glyph glyph-name="guillemotright" unicode="»è" d="M49 184 l129 535 l-129 514 l144 0 l131 -514 l-131 -535 l-144 0 ZM332 184 l129 535 l-129 514 l143 0 l131 -514 l-131 -535 l-143 0 Z" /><glyph glyph-name="odieresis" unicode="ö&#x2c6;" d="M8 1532 l178 205 l142 0 l176 -205 l-139 0 l-109 121 l-109 -121 l-139 0 Z" /><glyph glyph-name="ucircumflex" unicode="û&#x2da;" d="M132.5 1561 q-44.5 43 -44.5 106 q0 63 44.5 106.5 q44.5 43.5 107.5 43.5 q63 0 106 -43.5 q43 -43.5 43 -106.5 q0 -63 -43 -106 q-43 -43 -106 -43 q-63 0 -107.5 43 ZM186 1720 q-22 -21 -22 -53 q0 -32 22 -53 q22 -21 54 -21 q31 0 52 21 q21 21 21 53 q0 32 -21 53 q-21 21 -52 21 q-32 0 -54 -21 Z" /><glyph glyph-name="divide" unicode="÷&#x2dc;" d="M12 1577 q50 119 152 119 q43 0 101.5 -30.5 q58.5 -30.5 86.5 -29.5 q50 0 82 60 l78 -54 q-45 -118 -145 -118 q-42 0 -100.5 30 q-58.5 30 -88.5 29 q-56 0 -86 -59 l-80 53 Z" /><glyph glyph-name="afii10023" unicode="&#x401;" d="M82 0 l0 1434 l590 0 l0 -146 l-430 0 l0 -489 l350 0 l0 -144 l-350 0 l0 -510 l430 0 l0 -145 l-590 0 ZM178 1518 l0 184 l139 0 l0 -184 l-139 0 ZM432 1518 l0 184 l141 0 l0 -184 l-141 0 Z" /><glyph glyph-name="afii10017" unicode="&#x410;" d="M41 0 l274 1434 l232 0 l274 -1434 l-159 0 l-56 289 l-362 0 l-56 -289 l-147 0 ZM264 426 l320 0 l-162 827 l-158 -827 Z" /><glyph glyph-name="afii10018" unicode="&#x411;" d="M84 0 l0 1434 l604 0 l0 -146 l-446 0 l0 -446 l168 0 q338 0 338 -336 l0 -158 q0 -348 -330 -348 l-334 0 ZM242 145 l176 0 q88 0 129 46.5 q41 46.5 41 146.5 l0 178 q0 101 -43 141.5 q-43 40.5 -135 40.5 l-168 0 l0 -553 Z" /><glyph glyph-name="afii10019" unicode="&#x412;" d="M82 0 l0 1434 l321 0 q164 0 238 -78.5 q74 -78.5 74 -239.5 l0 -67 q0 -118 -38.5 -187.5 q-38.5 -69.5 -129.5 -97.5 q192 -54 192 -307 l0 -121 q0 -164 -81 -250 q-81 -86 -246 -86 l-330 0 ZM242 145 l170 0 q88 0 129 47.5 q41 47.5 41 147.5 l0 127 q0 117 -47.5 165 q-47.5 48 -153.5 48 l-139 0 l0 -535 ZM242 825 l123 0 q100 0 146 41.5 q46 41.5 46 149.5 l0 84 q0 97 -36.5 142.5 q-36.5 45.5 -121.5 45.5 l-157 0 l0 -463 Z" /><glyph glyph-name="afii10020" unicode="&#x413;" d="M84 0 l0 1434 l571 0 l0 -146 l-413 0 l0 -1288 l-158 0 Z" /><glyph glyph-name="afii10021" unicode="&#x414;" d="M49 141 l92 0 q34 38 47.5 86.5 q13.5 48.5 16.5 122.5 l55 1084 l576 0 l0 -1293 l108 0 l0 -338 l-156 0 l0 197 l-585 0 l0 -197 l-154 0 l0 338 ZM295 141 l379 0 l0 1147 l-266 0 l-48 -936 q-5 -81 -19 -129 q-14 -48 -46 -82 Z" /><glyph glyph-name="afii10022" unicode="&#x415;" d="M82 0 l0 1434 l590 0 l0 -146 l-430 0 l0 -489 l350 0 l0 -144 l-350 0 l0 -510 l430 0 l0 -145 l-590 0 Z" /><glyph glyph-name="afii10024" unicode="&#x416;" d="M37 0 l328 825 l-320 609 l160 0 l344 -660 l0 660 l158 0 l0 -660 l346 660 l159 0 l-317 -605 l326 -829 l-164 0 l-275 676 l-75 -135 l0 -541 l-158 0 l0 541 l-74 137 l-274 -678 l-164 0 Z" /><glyph glyph-name="afii10025" unicode="&#x417;" d="M74 346 l0 139 l149 0 l0 -147 q0 -99 42 -153 q42 -54 126 -54 q168 0 168 219 l0 113 q0 104 -46.5 158.5 q-46.5 54.5 -137.5 54.5 l-68 0 l0 143 l76 0 q81 0 128.5 52 q47.5 52 47.5 145 l0 65 q0 112 -40.5 167 q-40.5 55 -127.5 55 q-84 0 -126 -54 q-42 -54 -42 -153 l0 -97 l-147 0 l0 91 q0 169 79.5 263.5 q79.5 94.5 239.5 94.5 q161 0 242.5 -96.5 q81.5 -96.5 81.5 -264.5 l0 -36 q0 -112 -44.5 -188.5 q-44.5 -76.5 -131.5 -108.5 q88 -30 132 -107 q44 -77 44 -188 l0 -113 q0 -168 -81.5 -264 q-81.5 -96 -242.5 -96 q-160 0 -240.5 96 q-80.5 96 -80.5 264 Z" /><glyph glyph-name="afii10026" unicode="&#x418;" d="M82 0 l0 1434 l141 0 l0 -1069 l148 452 l209 617 l178 0 l0 -1434 l-144 0 l0 1141 l-153 -475 l-213 -666 l-166 0 Z" /><glyph glyph-name="afii10027" unicode="&#x419;" d="M82 0 l0 1434 l141 0 l0 -1069 l135 419 l222 650 l178 0 l0 -1434 l-144 0 l0 1141 l-149 -463 l-217 -678 l-166 0 ZM207 1729 l100 0 q8 -105 121 -105 q115 0 123 105 l98 0 q0 -94 -59 -147.5 q-59 -53.5 -162 -53.5 q-102 0 -160 53.5 q-58 53.5 -61 147.5 Z" /><glyph glyph-name="afii10028" unicode="&#x41a;" d="M82 0 l0 1434 l160 0 l0 -693 l381 693 l161 0 l-362 -654 l375 -780 l-164 0 l-307 623 l-84 -142 l0 -481 l-160 0 Z" /><glyph glyph-name="afii10029" unicode="&#x41b;" d="M39 -2 l0 145 q94 0 125.5 46.5 q31.5 46.5 34.5 158.5 l39 1086 l583 0 l0 -1434 l-159 0 l0 1288 l-275 0 l-33 -932 q-6 -182 -69 -269.5 q-63 -87.5 -219 -88.5 l-27 0 Z" /><glyph glyph-name="afii10030" unicode="&#x41c;" d="M80 0 l0 1434 l223 0 l236 -1145 l227 1145 l223 0 l0 -1434 l-151 0 l0 1153 l-228 -1151 l-153 0 l-238 1141 l0 -1143 l-139 0 Z" /><glyph glyph-name="afii10031" unicode="&#x41d;" d="M82 0 l0 1434 l160 0 l0 -646 l352 0 l0 646 l160 0 l0 -1434 l-160 0 l0 645 l-352 0 l0 -645 l-160 0 Z" /><glyph glyph-name="afii10032" unicode="&#x41e;" d="M70 346 l0 741 q0 169 83 265 q83 96 244 96 q162 0 246 -96 q84 -96 84 -265 l0 -741 q0 -167 -84 -263.5 q-84 -96.5 -246 -96.5 q-160 0 -243.5 96.5 q-83.5 96.5 -83.5 263.5 ZM227 338 q0 -100 42.5 -153.5 q42.5 -53.5 127.5 -53.5 q170 0 170 207 l0 758 q0 99 -42 153 q-42 54 -128 54 q-85 0 -127.5 -54 q-42.5 -54 -42.5 -153 l0 -758 Z" /><glyph glyph-name="afii10033" unicode="&#x41f;" d="M82 0 l0 1434 l672 0 l0 -1434 l-160 0 l0 1288 l-352 0 l0 -1288 l-160 0 Z" /><glyph glyph-name="afii10034" unicode="&#x420;" d="M82 0 l0 1434 l313 0 q164 0 243 -91.5 q79 -91.5 79 -259.5 l0 -172 q0 -346 -334 -346 l-141 0 l0 -565 l-160 0 ZM242 709 l141 0 q91 0 133.5 45.5 q42.5 45.5 42.5 146.5 l0 191 q0 100 -39 148 q-39 48 -125 48 l-153 0 l0 -579 Z" /><glyph glyph-name="afii10035" unicode="&#x421;" d="M70 346 l0 741 q0 168 80.5 264.5 q80.5 96.5 240.5 96.5 q161 0 242.5 -96.5 q81.5 -96.5 81.5 -264.5 l0 -129 l-152 0 l0 138 q0 207 -168 207 q-84 0 -126 -54 q-42 -54 -42 -153 l0 -758 q0 -99 42 -153 q42 -54 126 -54 q168 0 168 207 l0 186 l152 0 l0 -178 q0 -168 -81.5 -264 q-81.5 -96 -242.5 -96 q-160 0 -240.5 96 q-80.5 96 -80.5 264 Z" /><glyph glyph-name="afii10036" unicode="&#x422;" d="M37 1288 l0 146 l688 0 l0 -146 l-264 0 l0 -1288 l-160 0 l0 1288 l-264 0 Z" /><glyph glyph-name="afii10037" unicode="&#x423;" d="M37 1434 l160 0 l145 -498 l98 -361 l84 361 l129 498 l166 0 l-307 -1119 q-20 -87 -44.5 -143 q-24.5 -56 -67.5 -99.5 q-43 -43.5 -109 -61 q-66 -17.5 -162 -13.5 l0 143 q92 -4 138.5 28 q46.5 32 66.5 114 l33 94 l-330 1057 Z" /><glyph glyph-name="afii10038" unicode="&#x424;" d="M70 516 l0 391 q0 359 331 359 l101 0 l0 168 l157 0 l0 -168 l101 0 q168 0 250 -92.5 q82 -92.5 82 -266.5 l0 -391 q0 -358 -332 -358 l-101 0 l0 -158 l-157 0 l0 158 l-101 0 q-331 0 -331 358 ZM227 506 q0 -209 174 -209 l101 0 l0 827 l-101 0 q-90 0 -132 -51 q-42 -51 -42 -155 l0 -412 ZM659 297 l101 0 q176 0 176 209 l0 412 q0 104 -42.5 155 q-42.5 51 -133.5 51 l-101 0 l0 -827 Z" /><glyph glyph-name="afii10039" unicode="&#x425;" d="M47 0 l289 739 l-270 695 l165 0 l222 -574 l223 574 l149 0 l-268 -695 l287 -739 l-168 0 l-238 618 l-239 -618 l-152 0 Z" /><glyph glyph-name="afii10040" unicode="&#x426;" d="M96 0 l0 1434 l158 0 l0 -1289 l352 0 l0 1289 l162 0 l0 -1293 l109 0 l0 -334 l-156 0 l0 193 l-625 0 Z" /><glyph glyph-name="afii10041" unicode="&#x427;" d="M72 862 l0 572 l159 0 l0 -560 q0 -93 47 -149.5 q47 -56.5 130 -56.5 q72 0 116 43 q44 43 56 125 l0 598 l157 0 l0 -1434 l-157 0 l0 635 q-37 -54 -97.5 -83.5 q-60.5 -29.5 -126.5 -29.5 q-139 0 -211.5 94 q-72.5 94 -72.5 246 Z" /><glyph glyph-name="afii10042" unicode="&#x428;" d="M82 0 l0 1434 l160 0 l0 -1289 l274 0 l0 1289 l160 0 l0 -1289 l274 0 l0 1289 l158 0 l0 -1434 l-1026 0 Z" /><glyph glyph-name="afii10043" unicode="&#x429;" d="M82 0 l0 1434 l160 0 l0 -1289 l274 0 l0 1289 l158 0 l0 -1289 l276 0 l0 1289 l158 0 l0 -1293 l111 0 l0 -334 l-154 0 l0 193 l-983 0 Z" /><glyph glyph-name="afii10044" unicode="&#x42a;" d="M20 1290 l0 144 l338 0 l0 -566 l144 0 q334 0 334 -346 l0 -172 q0 -168 -79.5 -259 q-79.5 -91 -242.5 -91 l-313 0 l0 1290 l-181 0 ZM358 145 l156 0 q86 0 124 48.5 q38 48.5 38 148.5 l0 190 q0 103 -42 148 q-42 45 -132 45 l-144 0 l0 -580 Z" /><glyph glyph-name="afii10045" unicode="&#x42b;" d="M82 0 l0 1434 l160 0 l0 -566 l141 0 q334 0 334 -346 l0 -172 q0 -168 -79.5 -259 q-79.5 -91 -242.5 -91 l-313 0 ZM242 145 l153 0 q86 0 125 48.5 q39 48.5 39 148.5 l0 190 q0 103 -42.5 148 q-42.5 45 -133.5 45 l-141 0 l0 -580 ZM850 0 l0 1434 l158 0 l0 -1434 l-158 0 Z" /><glyph glyph-name="afii10046" unicode="&#x42c;" d="M82 0 l0 1434 l160 0 l0 -566 l141 0 q334 0 334 -346 l0 -172 q0 -168 -79.5 -259 q-79.5 -91 -242.5 -91 l-313 0 ZM242 145 l153 0 q86 0 125 48.5 q39 48.5 39 148.5 l0 190 q0 103 -42.5 148 q-42.5 45 -133.5 45 l-141 0 l0 -580 Z" /><glyph glyph-name="afii10047" unicode="&#x42d;" d="M63 346 l0 156 l150 0 l0 -164 q0 -99 42 -153 q42 -54 126 -54 q84 0 126 54 q42 54 42 153 l0 332 l-250 0 l0 143 l250 0 l0 283 q0 99 -42 153 q-42 54 -126 54 q-84 0 -126 -54 q-42 -54 -42 -153 l0 -115 l-147 0 l0 106 q0 169 80 265 q80 96 239 96 q160 0 241 -96.5 q81 -96.5 81 -264.5 l0 -741 q0 -168 -81 -264 q-81 -96 -241 -96 q-160 0 -241 96 q-81 96 -81 264 Z" /><glyph glyph-name="afii10048" unicode="&#x42e;" d="M82 0 l0 1434 l160 0 l0 -646 l207 0 l0 299 q0 169 83.5 265 q83.5 96 245.5 96 q161 0 244.5 -96.5 q83.5 -96.5 83.5 -264.5 l0 -741 q0 -167 -84 -263.5 q-84 -96.5 -244 -96.5 q-162 0 -245.5 96.5 q-83.5 96.5 -83.5 263.5 l0 299 l-207 0 l0 -645 l-160 0 ZM608 338 q0 -99 42 -153 q42 -54 128 -54 q85 0 127.5 54 q42.5 54 42.5 153 l0 758 q0 100 -42.5 153.5 q-42.5 53.5 -127.5 53.5 q-170 0 -170 -207 l0 -758 Z" /><glyph glyph-name="afii10049" unicode="&#x42f;" d="M55 0 q29 57 29 172 l0 223 q0 245 178 299 q-176 57 -176 295 l0 117 q0 163 77 245.5 q77 82.5 243 82.5 l319 0 l0 -1434 l-160 0 l0 612 l-112 0 q-105 0 -157 -48 q-52 -48 -52 -165 l0 -225 q0 -112 -27 -174 l-162 0 ZM244 954 q0 -111 49.5 -153.5 q49.5 -42.5 150.5 -42.5 l121 0 l0 530 l-155 0 q-87 0 -126.5 -48.5 q-39.5 -48.5 -39.5 -147.5 l0 -138 Z" /><glyph glyph-name="afii10065" unicode="&#x430;" d="M41 0 l274 1434 l232 0 l274 -1434 l-159 0 l-56 289 l-362 0 l-56 -289 l-147 0 ZM264 426 l320 0 l-162 827 l-158 -827 Z" /><glyph glyph-name="afii10066" unicode="&#x431;" d="M84 0 l0 1434 l604 0 l0 -146 l-446 0 l0 -446 l168 0 q338 0 338 -336 l0 -158 q0 -348 -330 -348 l-334 0 ZM242 145 l176 0 q88 0 129 46.5 q41 46.5 41 146.5 l0 178 q0 101 -43 141.5 q-43 40.5 -135 40.5 l-168 0 l0 -553 Z" /><glyph glyph-name="afii10067" unicode="&#x432;" d="M82 0 l0 1434 l321 0 q164 0 238 -78.5 q74 -78.5 74 -239.5 l0 -67 q0 -118 -38.5 -187.5 q-38.5 -69.5 -129.5 -97.5 q192 -54 192 -307 l0 -121 q0 -164 -81 -250 q-81 -86 -246 -86 l-330 0 ZM242 145 l170 0 q88 0 129 47.5 q41 47.5 41 147.5 l0 127 q0 117 -47.5 165 q-47.5 48 -153.5 48 l-139 0 l0 -535 ZM242 825 l123 0 q100 0 146 41.5 q46 41.5 46 149.5 l0 84 q0 97 -36.5 142.5 q-36.5 45.5 -121.5 45.5 l-157 0 l0 -463 Z" /><glyph glyph-name="afii10068" unicode="&#x433;" d="M84 0 l0 1434 l571 0 l0 -146 l-413 0 l0 -1288 l-158 0 Z" /><glyph glyph-name="afii10069" unicode="&#x434;" d="M49 141 l92 0 q34 38 47.5 86.5 q13.5 48.5 16.5 122.5 l55 1084 l576 0 l0 -1293 l108 0 l0 -338 l-156 0 l0 197 l-585 0 l0 -197 l-154 0 l0 338 ZM295 141 l379 0 l0 1147 l-266 0 l-48 -936 q-5 -81 -19 -129 q-14 -48 -46 -82 Z" /><glyph glyph-name="afii10070" unicode="&#x435;" d="M82 0 l0 1434 l590 0 l0 -146 l-430 0 l0 -489 l350 0 l0 -144 l-350 0 l0 -510 l430 0 l0 -145 l-590 0 Z" /><glyph glyph-name="afii10072" unicode="&#x436;" d="M37 0 l328 825 l-320 609 l160 0 l344 -660 l0 660 l158 0 l0 -660 l346 660 l159 0 l-317 -605 l326 -829 l-164 0 l-275 676 l-75 -135 l0 -541 l-158 0 l0 541 l-74 137 l-274 -678 l-164 0 Z" /><glyph glyph-name="afii10073" unicode="&#x437;" d="M74 346 l0 139 l149 0 l0 -147 q0 -99 42 -153 q42 -54 126 -54 q168 0 168 219 l0 113 q0 104 -46.5 158.5 q-46.5 54.5 -137.5 54.5 l-68 0 l0 143 l76 0 q81 0 128.5 52 q47.5 52 47.5 145 l0 65 q0 112 -40.5 167 q-40.5 55 -127.5 55 q-84 0 -126 -54 q-42 -54 -42 -153 l0 -97 l-147 0 l0 91 q0 169 79.5 263.5 q79.5 94.5 239.5 94.5 q161 0 242.5 -96.5 q81.5 -96.5 81.5 -264.5 l0 -36 q0 -112 -44.5 -188.5 q-44.5 -76.5 -131.5 -108.5 q88 -30 132 -107 q44 -77 44 -188 l0 -113 q0 -168 -81.5 -264 q-81.5 -96 -242.5 -96 q-160 0 -240.5 96 q-80.5 96 -80.5 264 Z" /><glyph glyph-name="afii10074" unicode="&#x438;" d="M82 0 l0 1434 l141 0 l0 -1069 l127 395 l230 674 l178 0 l0 -1434 l-144 0 l0 1141 l-155 -479 l-211 -662 l-166 0 Z" /><glyph glyph-name="afii10075" unicode="&#x439;" d="M82 0 l0 1434 l141 0 l0 -1069 l133 413 l224 656 l178 0 l0 -1434 l-144 0 l0 1141 l-143 -451 l-223 -690 l-166 0 ZM207 1726 l100 0 q4 -57 35 -80.5 q31 -23.5 86 -23.5 q115 0 123 104 l98 0 q0 -94 -59 -147 q-59 -53 -162 -53 q-102 0 -160 53 q-58 53 -61 147 Z" /><glyph glyph-name="afii10076" unicode="&#x43a;" d="M82 0 l0 1434 l160 0 l0 -693 l381 693 l161 0 l-362 -654 l375 -780 l-164 0 l-307 623 l-84 -142 l0 -481 l-160 0 Z" /><glyph glyph-name="afii10077" unicode="&#x43b;" d="M39 -2 l0 145 q94 0 125.5 46.5 q31.5 46.5 34.5 158.5 l39 1086 l583 0 l0 -1434 l-159 0 l0 1288 l-275 0 l-33 -932 q-6 -182 -69 -269.5 q-63 -87.5 -219 -88.5 l-27 0 Z" /><glyph glyph-name="afii10078" unicode="&#x43c;" d="M80 0 l0 1434 l223 0 l236 -1145 l227 1145 l223 0 l0 -1434 l-151 0 l0 1153 l-228 -1151 l-153 0 l-238 1141 l0 -1143 l-139 0 Z" /><glyph glyph-name="afii10079" unicode="&#x43d;" d="M82 0 l0 1434 l160 0 l0 -646 l352 0 l0 646 l160 0 l0 -1434 l-160 0 l0 645 l-352 0 l0 -645 l-160 0 Z" /><glyph glyph-name="afii10080" unicode="&#x43e;" d="M70 346 l0 741 q0 169 83 265 q83 96 244 96 q162 0 246 -96 q84 -96 84 -265 l0 -741 q0 -167 -84 -263.5 q-84 -96.5 -246 -96.5 q-160 0 -243.5 96.5 q-83.5 96.5 -83.5 263.5 ZM227 338 q0 -100 42.5 -153.5 q42.5 -53.5 127.5 -53.5 q170 0 170 207 l0 758 q0 99 -42 153 q-42 54 -128 54 q-85 0 -127.5 -54 q-42.5 -54 -42.5 -153 l0 -758 Z" /><glyph glyph-name="afii10081" unicode="&#x43f;" d="M82 0 l0 1434 l672 0 l0 -1434 l-160 0 l0 1288 l-352 0 l0 -1288 l-160 0 Z" /><glyph glyph-name="afii10082" unicode="&#x440;" d="M82 0 l0 1434 l313 0 q164 0 243 -91.5 q79 -91.5 79 -259.5 l0 -172 q0 -346 -334 -346 l-141 0 l0 -565 l-160 0 ZM242 709 l141 0 q91 0 133.5 45.5 q42.5 45.5 42.5 146.5 l0 191 q0 100 -39 148 q-39 48 -125 48 l-153 0 l0 -579 Z" /><glyph glyph-name="afii10083" unicode="&#x441;" d="M70 346 l0 741 q0 168 80.5 264.5 q80.5 96.5 240.5 96.5 q161 0 242.5 -96.5 q81.5 -96.5 81.5 -264.5 l0 -129 l-152 0 l0 138 q0 207 -168 207 q-84 0 -126 -54 q-42 -54 -42 -153 l0 -758 q0 -99 42 -153 q42 -54 126 -54 q168 0 168 207 l0 186 l152 0 l0 -178 q0 -168 -81.5 -264 q-81.5 -96 -242.5 -96 q-160 0 -240.5 96 q-80.5 96 -80.5 264 Z" /><glyph glyph-name="afii10084" unicode="&#x442;" d="M37 1288 l0 146 l688 0 l0 -146 l-264 0 l0 -1288 l-160 0 l0 1288 l-264 0 Z" /><glyph glyph-name="afii10085" unicode="&#x443;" d="M37 1434 l160 0 l145 -498 l98 -361 l84 361 l129 498 l166 0 l-307 -1119 q-20 -87 -44.5 -143 q-24.5 -56 -67.5 -99.5 q-43 -43.5 -109 -61 q-66 -17.5 -162 -13.5 l0 143 q92 -4 138.5 28 q46.5 32 66.5 114 l33 94 l-330 1057 Z" /><glyph glyph-name="afii10086" unicode="&#x444;" d="M70 516 l0 391 q0 359 331 359 l101 0 l0 168 l157 0 l0 -168 l101 0 q168 0 250 -92.5 q82 -92.5 82 -266.5 l0 -391 q0 -358 -332 -358 l-101 0 l0 -158 l-157 0 l0 158 l-101 0 q-331 0 -331 358 ZM227 506 q0 -209 174 -209 l101 0 l0 827 l-101 0 q-90 0 -132 -51 q-42 -51 -42 -155 l0 -412 ZM659 297 l101 0 q176 0 176 209 l0 412 q0 104 -42.5 155 q-42.5 51 -133.5 51 l-101 0 l0 -827 Z" /><glyph glyph-name="afii10087" unicode="&#x445;" d="M47 0 l289 739 l-270 695 l165 0 l222 -574 l223 574 l149 0 l-268 -695 l287 -739 l-168 0 l-238 618 l-239 -618 l-152 0 Z" /><glyph glyph-name="afii10088" unicode="&#x446;" d="M96 0 l0 1434 l158 0 l0 -1289 l352 0 l0 1289 l162 0 l0 -1293 l109 0 l0 -334 l-156 0 l0 193 l-625 0 Z" /><glyph glyph-name="afii10089" unicode="&#x447;" d="M72 862 l0 572 l159 0 l0 -560 q0 -93 47 -149.5 q47 -56.5 130 -56.5 q72 0 116 43 q44 43 56 125 l0 598 l157 0 l0 -1434 l-157 0 l0 635 q-37 -54 -97.5 -83.5 q-60.5 -29.5 -126.5 -29.5 q-139 0 -211.5 94 q-72.5 94 -72.5 246 Z" /><glyph glyph-name="afii10090" unicode="&#x448;" d="M82 0 l0 1434 l160 0 l0 -1289 l274 0 l0 1289 l160 0 l0 -1289 l274 0 l0 1289 l158 0 l0 -1434 l-1026 0 Z" /><glyph glyph-name="afii10091" unicode="&#x449;" d="M82 0 l0 1434 l160 0 l0 -1289 l274 0 l0 1289 l158 0 l0 -1289 l276 0 l0 1289 l158 0 l0 -1293 l111 0 l0 -334 l-154 0 l0 193 l-983 0 Z" /><glyph glyph-name="afii10092" unicode="&#x44a;" d="M20 1290 l0 144 l338 0 l0 -566 l144 0 q334 0 334 -346 l0 -172 q0 -168 -79.5 -259 q-79.5 -91 -242.5 -91 l-313 0 l0 1290 l-181 0 ZM358 145 l156 0 q86 0 124 48.5 q38 48.5 38 148.5 l0 190 q0 103 -42 148 q-42 45 -132 45 l-144 0 l0 -580 Z" /><glyph glyph-name="afii10093" unicode="&#x44b;" d="M82 0 l0 1434 l160 0 l0 -566 l141 0 q334 0 334 -346 l0 -172 q0 -168 -79.5 -259 q-79.5 -91 -242.5 -91 l-313 0 ZM242 145 l153 0 q86 0 125 48.5 q39 48.5 39 148.5 l0 190 q0 103 -42.5 148 q-42.5 45 -133.5 45 l-141 0 l0 -580 ZM850 0 l0 1434 l158 0 l0 -1434 l-158 0 Z" /><glyph glyph-name="afii10094" unicode="&#x44c;" d="M82 0 l0 1434 l160 0 l0 -566 l141 0 q334 0 334 -346 l0 -172 q0 -168 -79.5 -259 q-79.5 -91 -242.5 -91 l-313 0 ZM242 145 l153 0 q86 0 125 48.5 q39 48.5 39 148.5 l0 190 q0 103 -42.5 148 q-42.5 45 -133.5 45 l-141 0 l0 -580 Z" /><glyph glyph-name="afii10095" unicode="&#x44d;" d="M63 346 l0 156 l150 0 l0 -164 q0 -99 42 -153 q42 -54 126 -54 q84 0 126 54 q42 54 42 153 l0 332 l-250 0 l0 143 l250 0 l0 283 q0 99 -42 153 q-42 54 -126 54 q-84 0 -126 -54 q-42 -54 -42 -153 l0 -115 l-147 0 l0 106 q0 169 80 265 q80 96 239 96 q160 0 241 -96.5 q81 -96.5 81 -264.5 l0 -741 q0 -168 -81 -264 q-81 -96 -241 -96 q-160 0 -241 96 q-81 96 -81 264 Z" /><glyph glyph-name="afii10096" unicode="&#x44e;" d="M82 0 l0 1434 l160 0 l0 -646 l207 0 l0 299 q0 169 83.5 265 q83.5 96 245.5 96 q161 0 244.5 -96.5 q83.5 -96.5 83.5 -264.5 l0 -741 q0 -167 -84 -263.5 q-84 -96.5 -244 -96.5 q-162 0 -245.5 96.5 q-83.5 96.5 -83.5 263.5 l0 299 l-207 0 l0 -645 l-160 0 ZM608 338 q0 -99 42 -153 q42 -54 128 -54 q85 0 127.5 54 q42.5 54 42.5 153 l0 758 q0 100 -42.5 153.5 q-42.5 53.5 -127.5 53.5 q-170 0 -170 -207 l0 -758 Z" /><glyph glyph-name="afii10097" unicode="&#x44f;" d="M55 0 q29 57 29 172 l0 223 q0 245 178 299 q-176 57 -176 295 l0 117 q0 163 77 245.5 q77 82.5 243 82.5 l319 0 l0 -1434 l-160 0 l0 612 l-112 0 q-105 0 -157 -48 q-52 -48 -52 -165 l0 -225 q0 -112 -27 -174 l-162 0 ZM244 954 q0 -111 49.5 -153.5 q49.5 -42.5 150.5 -42.5 l121 0 l0 530 l-155 0 q-87 0 -126.5 -48.5 q-39.5 -48.5 -39.5 -147.5 l0 -138 Z" /><glyph glyph-name="afii10071" unicode="&#x451;" d="M82 0 l0 1434 l590 0 l0 -146 l-430 0 l0 -489 l350 0 l0 -144 l-350 0 l0 -510 l430 0 l0 -145 l-590 0 ZM178 1518 l0 184 l139 0 l0 -184 l-139 0 ZM432 1518 l0 184 l141 0 l0 -184 l-141 0 Z" /><glyph glyph-name="uni2000" unicode="&#x2000;" d="" /><glyph glyph-name="uni2001" unicode="&#x2001;" d="" /><glyph glyph-name="uni2002" unicode="&#x2002;" d="" /><glyph glyph-name="uni2003" unicode="&#x2003;" d="" /><glyph glyph-name="uni2004" unicode="&#x2004;" d="" /><glyph glyph-name="uni2005" unicode="&#x2005;" d="" /><glyph glyph-name="uni2006" unicode="&#x2006;" d="" /><glyph glyph-name="uni2007" unicode="&#x2007;" d="" /><glyph glyph-name="uni2008" unicode="&#x2008;" d="" /><glyph glyph-name="uni2009" unicode="&#x2009;" d="" /><glyph glyph-name="uni200A" unicode="&#x200a;" d="" /><glyph glyph-name="uni2010" unicode="&#x2010;" d="M76 645 l0 143 l391 0 l0 -143 l-391 0 Z" /><glyph glyph-name="uni2011" unicode="&#x2011;" d="M76 645 l0 143 l391 0 l0 -143 l-391 0 Z" /><glyph glyph-name="figuredash" unicode="&#x2012;" d="M76 645 l0 143 l391 0 l0 -143 l-391 0 Z" /><glyph glyph-name="Eth" unicode="ð&#x2013;" d="M27 651 l0 131 l884 0 l0 -131 l-884 0 Z" /><glyph glyph-name="Ntilde" unicode="ñ&#x2014;" d="M27 651 l0 131 l1652 0 l0 -131 l-1652 0 Z" /><glyph glyph-name="Ocircumflex" unicode="ô&#x2018;" d="M82 1055 l0 184 l78 195 l67 0 l-51 -181 l60 0 l0 -198 l-154 0 Z" /><glyph glyph-name="Otilde" unicode="õ&#x2019;" d="M92 1235 l0 199 l154 0 l0 -183 l-80 -196 l-66 0 l52 180 l-60 0 Z" /><glyph glyph-name="acircumflex" unicode="â&#x201a;" d="M92 0 l0 199 l154 0 l0 -185 l-80 -194 l-66 0 l52 180 l-60 0 Z" /><glyph glyph-name="Ograve" unicode="ò&#x201c;" d="M82 1055 l0 184 l78 195 l67 0 l-51 -181 l60 0 l0 -198 l-154 0 ZM311 1055 l0 184 l78 195 l66 0 l-49 -181 l57 0 l0 -198 l-152 0 Z" /><glyph glyph-name="Oacute" unicode="ó&#x201d;" d="M82 1235 l0 199 l151 0 l0 -185 l-77 -194 l-66 0 l49 180 l-57 0 ZM309 1235 l0 199 l154 0 l0 -185 l-78 -194 l-68 0 l52 180 l-60 0 Z" /><glyph glyph-name="atilde" unicode="ã&#x201e;" d="M92 0 l0 199 l154 0 l0 -185 l-80 -194 l-66 0 l52 180 l-60 0 ZM326 0 l0 199 l153 0 l0 -185 l-78 -194 l-67 0 l51 180 l-59 0 Z" /><glyph glyph-name="bullet" unicode="&#x2022;" d="M184 565 q-63 63 -63 152 q0 89 63 152 q63 63 152 63 q89 0 152 -63 q63 -63 63 -152 q0 -89 -63 -152 q-63 -63 -152 -63 q-89 0 -152 63 Z" /><glyph glyph-name="Eacute" unicode="é&#x2026;" d="M82 0 l0 199 l154 0 l0 -199 l-154 0 ZM311 0 l0 199 l154 0 l0 -199 l-154 0 ZM541 0 l0 199 l153 0 l0 -199 l-153 0 Z" /><glyph glyph-name="uni202F" unicode="&#x202f;" d="" /><glyph glyph-name="Udieresis" unicode="ü&#x2039;" d="M49 719 l127 526 l152 0 l-127 -526 l127 -549 l-152 0 l-127 549 Z" /><glyph glyph-name="Yacute" unicode="ý&#x203a;" d="M49 172 l125 547 l-125 526 l150 0 l129 -526 l-129 -547 l-150 0 Z" /><glyph glyph-name="uni205F" unicode="&#x205f;" d="" /><glyph glyph-name="Ucircumflex" unicode="û&#x20ac;" d="M27 567 l0 84 l90 0 l0 142 l-90 0 l0 81 l90 0 l0 213 q0 169 78 265 q78 96 237 96 q159 0 237.5 -96 q78.5 -96 78.5 -265 l0 -92 l-150 0 l0 101 q0 207 -162 207 q-162 0 -162 -207 l0 -222 l357 0 l0 -81 l-357 0 l0 -142 l357 0 l0 -84 l-357 0 l0 -229 q0 -207 162 -207 q162 0 162 207 l0 111 l150 0 l0 -103 q0 -168 -78.5 -264 q-78.5 -96 -237.5 -96 q-159 0 -237 96 q-78 96 -78 264 l0 221 l-90 0 Z" /><glyph glyph-name="ordfeminine" unicode="ª&#x2122;" d="M25 1339 l0 95 l436 0 l0 -95 l-166 0 l0 -634 l-102 0 l0 634 l-168 0 ZM553 705 l0 729 l143 0 l150 -570 l143 570 l144 0 l0 -729 l-99 0 l0 575 l-141 -571 l-98 0 l-150 567 l0 -571 l-92 0 Z" /><glyph glyph-name="uni25FC" unicode="&#x25fc;" d="M0 0 l0 1434 l1434 0 l0 -1434 l-1434 0 Z" /></font>
</defs>
</svg>
